# xmcd
#
# Track frame offsets:
#	150
#	14785
#	24582
#	34341
#	48803
#	59249
#	75338
#	96918
#	104861
#	115426
#	127047
#	141452
#	159919
#	184088
#
# Disc length: 2688 seconds
#
# Revision: 1
# Processed by: cddbd v1.5.1PL0 Copyright (c) Steve Scherf et al.
# Submitted via: audiograbber 1.82.01
#
DISCID=cd0a7e0e
DTITLE=Henri Band - Le tour du libraire
DYEAR=2004
DGENRE=Alternative
TTITLE0=Moi, Elvis pis les autres
TTITLE1=Dans l'isoloir
TTITLE2=Le tour du libraire
TTITLE3=Dr. Henri Band
TTITLE4=L'infâme II (la trahison)
TTITLE5=Mon village et la propagande
TTITLE6=L'américaine
TTITLE7=Gérard s'en va-t'en guerre
TTITLE8=La bête
TTITLE9=Danse macabre
TTITLE10=Un homme
TTITLE11=73, Legault
TTITLE12=Le diable de St-Placide
TTITLE13=Gros jambon
EXTD=
EXTT0=
EXTT1=
EXTT2=
EXTT3=
EXTT4=
EXTT5=
EXTT6=
EXTT7=
EXTT8=
EXTT9=
EXTT10=
EXTT11=
EXTT12=
EXTT13=
PLAYORDER=
